<svg width="47" height="47" viewBox="0 0 47 47" fill="none" xmlns="http://www.w3.org/2000/svg">
<g clip-path="url(#clip0)">
<path d="M22.2004 0.538479C22.1999 0.539032 22.1992 0.53949 22.1987 0.540134L12.6518 10.1333C11.9366 10.852 11.9393 12.0144 12.658 12.7297C13.3767 13.445 14.5391 13.4423 15.2544 12.7236L21.6641 6.28276V45.1641C21.6641 46.1781 22.486 47 23.5 47C24.514 47 25.3359 46.1781 25.3359 45.1641V6.28285L31.7456 12.7235C32.4608 13.4422 33.6233 13.4449 34.3419 12.7297C35.0608 12.0143 35.0633 10.8518 34.3482 10.1332L24.8013 0.540039C24.8008 0.53949 24.8001 0.539032 24.7996 0.538387C24.0819 -0.180656 22.9157 -0.17836 22.2004 0.538479Z" fill="#235086"/>
</g>
<defs>
<clipPath id="clip0">
<rect width="47" height="47" fill="white" transform="translate(0 47) rotate(-90)"/>
</clipPath>
</defs>
</svg>
