<svg width="35" height="35" viewBox="0 0 35 35" fill="none" xmlns="http://www.w3.org/2000/svg">
<path d="M27.661 21.6812C26.9444 20.9352 26.0802 20.5363 25.1642 20.5363C24.2556 20.5363 23.3839 20.9278 22.6378 21.6739L20.3035 24.0008C20.1115 23.8973 19.9194 23.8013 19.7347 23.7053C19.4688 23.5723 19.2176 23.4467 19.0034 23.3138C16.8169 21.925 14.8298 20.1152 12.9239 17.7735C12.0005 16.6064 11.38 15.6239 10.9294 14.6267C11.5352 14.0727 12.0966 13.4965 12.6432 12.9424C12.8501 12.7356 13.0569 12.5214 13.2637 12.3145C14.815 10.7633 14.815 8.75402 13.2637 7.20275L11.2471 5.18611C11.0181 4.95711 10.7817 4.72073 10.5601 4.48434C10.1169 4.02635 9.65149 3.55358 9.17133 3.11036C8.45479 2.40121 7.5979 2.02448 6.69669 2.02448C5.79548 2.02448 4.92381 2.40121 4.18511 3.11036C4.17773 3.11775 4.17773 3.11775 4.17034 3.12514L1.65876 5.65887C0.713229 6.60441 0.173979 7.75678 0.055787 9.09382C-0.121501 11.2508 0.51378 13.2601 1.00132 14.575C2.19801 17.8031 3.98567 20.7948 6.65237 24.0008C9.88787 27.8642 13.7808 30.915 18.2278 33.0646C19.9268 33.8698 22.1946 34.8227 24.7283 34.9852C24.8835 34.9926 25.046 35 25.1937 35C26.9001 35 28.3332 34.3869 29.456 33.168C29.4634 33.1532 29.4782 33.1459 29.4856 33.1311C29.8697 32.6657 30.3129 32.2446 30.7783 31.794C31.0959 31.4912 31.4209 31.1735 31.7386 30.8411C32.4699 30.0803 32.854 29.1938 32.854 28.2852C32.854 27.3692 32.4625 26.4902 31.7164 25.7515L27.661 21.6812ZM30.3055 29.4597C30.2981 29.4597 30.2981 29.4671 30.3055 29.4597C30.0174 29.77 29.7219 30.0507 29.4043 30.361C28.9241 30.819 28.4366 31.2991 27.9786 31.8384C27.2325 32.6362 26.3535 33.0129 25.2011 33.0129C25.0903 33.0129 24.9721 33.0129 24.8613 33.0055C22.6674 32.8651 20.6286 32.0083 19.0994 31.2769C14.9184 29.2529 11.2471 26.3794 8.19625 22.7376C5.67729 19.7015 3.99305 16.8945 2.87762 13.8806C2.19063 12.0412 1.93947 10.6082 2.05027 9.25634C2.12414 8.39206 2.45656 7.67552 3.06968 7.0624L5.58864 4.54344C5.9506 4.20364 6.33473 4.01896 6.71147 4.01896C7.17685 4.01896 7.55358 4.29967 7.78997 4.53605C7.79735 4.54344 7.80474 4.55083 7.81213 4.55821C8.26273 4.97927 8.69118 5.4151 9.14178 5.88048C9.37078 6.11687 9.60716 6.35325 9.84355 6.59702L11.8602 8.61367C12.6432 9.39669 12.6432 10.1206 11.8602 10.9036C11.646 11.1179 11.4391 11.3321 11.2249 11.5389C10.6044 12.1742 10.0134 12.7652 9.37078 13.3413C9.35601 13.3561 9.34123 13.3635 9.33385 13.3783C8.69857 14.0136 8.81676 14.6341 8.94972 15.0551C8.95711 15.0773 8.9645 15.0994 8.97188 15.1216C9.49636 16.3922 10.2351 17.5889 11.3579 19.0145L11.3653 19.0219C13.4041 21.5335 15.5537 23.4911 17.9249 24.9906C18.2278 25.1827 18.538 25.3378 18.8335 25.4855C19.0994 25.6185 19.3506 25.7441 19.5648 25.8771C19.5944 25.8918 19.6239 25.914 19.6535 25.9288C19.9046 26.0543 20.141 26.1134 20.3848 26.1134C20.9979 26.1134 21.382 25.7293 21.5076 25.6037L24.034 23.0774C24.2851 22.8262 24.684 22.5234 25.1494 22.5234C25.6074 22.5234 25.9841 22.8115 26.2131 23.0626C26.2205 23.07 26.2205 23.07 26.2279 23.0774L30.2981 27.1476C31.059 27.9011 31.059 28.6767 30.3055 29.4597Z" fill="white"/>
<path d="M18.9149 8.32558C20.8502 8.65061 22.6083 9.56659 24.0119 10.9701C25.4154 12.3736 26.324 14.1318 26.6564 16.0671C26.7377 16.5547 27.1587 16.8945 27.6389 16.8945C27.698 16.8945 27.7497 16.8871 27.8088 16.8797C28.3554 16.7911 28.7174 16.274 28.6287 15.7273C28.2298 13.3857 27.1218 11.2508 25.4302 9.55921C23.7386 7.86759 21.6037 6.75954 19.262 6.36064C18.7154 6.272 18.2057 6.63396 18.1097 7.17321C18.0136 7.71246 18.3682 8.23694 18.9149 8.32558Z" fill="white"/>
<path d="M34.9593 15.4393C34.3019 11.5832 32.4847 8.07442 29.6924 5.28214C26.9001 2.48986 23.3913 0.67266 19.5353 0.0152178C18.996 -0.080813 18.4863 0.288536 18.3903 0.827787C18.3017 1.37442 18.6636 1.88413 19.2103 1.98016C22.6526 2.56373 25.7921 4.19625 28.2889 6.68567C30.7857 9.18247 32.4108 12.3219 32.9944 15.7643C33.0756 16.2518 33.4967 16.5916 33.9768 16.5916C34.0359 16.5916 34.0877 16.5842 34.1468 16.5768C34.686 16.4956 35.0554 15.9785 34.9593 15.4393Z" fill="white"/>
</svg>
