<svg width="29" height="29" viewBox="0 0 29 29" fill="none" xmlns="http://www.w3.org/2000/svg">
<g clip-path="url(#clip0)">
<path d="M28.9827 5.99707L18.7882 14.4861L29 21.2822V6.1884C29 6.12315 28.9933 6.05949 28.9827 5.99707Z" fill="white"/>
<path d="M17.869 15.2515L16.5839 16.3216C15.9801 16.8243 15.2401 17.0757 14.5001 17.0757C13.76 17.0757 13.0199 16.8243 12.4162 16.3216L11.1311 15.2515L0 22.6594V22.812C0 23.4442 0.514354 23.9585 1.14652 23.9585H27.8534C28.4856 23.9585 28.9999 23.4442 28.9999 22.812V22.6594L17.869 15.2515Z" fill="white"/>
<path d="M27.8576 5.0415C27.8562 5.0415 27.8548 5.0415 27.8535 5.0415H1.14649C1.14507 5.0415 1.14371 5.0415 1.1423 5.0415C0.980419 5.04213 0.910355 5.24836 1.03474 5.35195L11.5292 14.0907C11.5304 14.0917 11.5317 14.0928 11.5329 14.0938L13.1498 15.4402C13.9321 16.0917 15.0679 16.0917 15.8502 15.4402L27.9652 5.35195C28.0896 5.2483 28.0195 5.04207 27.8576 5.0415Z" fill="white"/>
<path d="M0.0172754 5.99707C0.00674023 6.05949 0 6.12304 0 6.1884V21.2822L10.2118 14.486L0.0172754 5.99707Z" fill="white"/>
</g>
<defs>
<clipPath id="clip0">
<rect width="29" height="29" fill="white"/>
</clipPath>
</defs>
</svg>
